<svg width="1160" height="1160" viewBox="0 0 1160 1160" fill="none" xmlns="http://www.w3.org/2000/svg">
<path d="M440 80H400V120H440V80Z" fill="black"/>
<path d="M480 80H440V120H480V80Z" fill="black"/>
<path d="M560 80H520V120H560V80Z" fill="black"/>
<path d="M600 80H560V120H600V80Z" fill="black"/>
<path d="M680 80H640V120H680V80Z" fill="black"/>
<path d="M520 120H480V160H520V120Z" fill="black"/>
<path d="M760 120H720V160H760V120Z" fill="black"/>
<path d="M600 160H560V200H600V160Z" fill="black"/>
<path d="M640 160H600V200H640V160Z" fill="black"/>
<path d="M440 200H400V240H440V200Z" fill="black"/>
<path d="M480 200H440V240H480V200Z" fill="black"/>
<path d="M520 200H480V240H520V200Z" fill="black"/>
<path d="M560 200H520V240H560V200Z" fill="black"/>
<path d="M680 200H640V240H680V200Z" fill="black"/>
<path d="M720 200H680V240H720V200Z" fill="black"/>
<path d="M440 240H400V280H440V240Z" fill="black"/>
<path d="M520 240H480V280H520V240Z" fill="black"/>
<path d="M560 240H520V280H560V240Z" fill="black"/>
<path d="M640 240H600V280H640V240Z" fill="black"/>
<path d="M680 240H640V280H680V240Z" fill="black"/>
<path d="M720 240H680V280H720V240Z" fill="black"/>
<path d="M440 280H400V320H440V280Z" fill="black"/>
<path d="M480 280H440V320H480V280Z" fill="black"/>
<path d="M560 280H520V320H560V280Z" fill="black"/>
<path d="M640 280H600V320H640V280Z" fill="black"/>
<path d="M680 280H640V320H680V280Z" fill="black"/>
<path d="M760 280H720V320H760V280Z" fill="black"/>
<path d="M440 320H400V360H440V320Z" fill="black"/>
<path d="M520 320H480V360H520V320Z" fill="black"/>
<path d="M600 320H560V360H600V320Z" fill="black"/>
<path d="M680 320H640V360H680V320Z" fill="black"/>
<path d="M760 320H720V360H760V320Z" fill="black"/>
<path d="M440 360H400V400H440V360Z" fill="black"/>
<path d="M560 360H520V400H560V360Z" fill="black"/>
<path d="M600 360H560V400H600V360Z" fill="black"/>
<path d="M680 360H640V400H680V360Z" fill="black"/>
<path d="M720 360H680V400H720V360Z" fill="black"/>
<path d="M760 360H720V400H760V360Z" fill="black"/>
<path d="M120 400H80V440H120V400Z" fill="black"/>
<path d="M280 400H240V440H280V400Z" fill="black"/>
<path d="M360 400H320V440H360V400Z" fill="black"/>
<path d="M400 400H360V440H400V400Z" fill="black"/>
<path d="M440 400H400V440H440V400Z" fill="black"/>
<path d="M480 400H440V440H480V400Z" fill="black"/>
<path d="M640 400H600V440H640V400Z" fill="black"/>
<path d="M680 400H640V440H680V400Z" fill="black"/>
<path d="M760 400H720V440H760V400Z" fill="black"/>
<path d="M800 400H760V440H800V400Z" fill="black"/>
<path d="M840 400H800V440H840V400Z" fill="black"/>
<path d="M880 400H840V440H880V400Z" fill="black"/>
<path d="M920 400H880V440H920V400Z" fill="black"/>
<path d="M960 400H920V440H960V400Z" fill="black"/>
<path d="M1080 400H1040V440H1080V400Z" fill="black"/>
<path d="M160 440H120V480H160V440Z" fill="black"/>
<path d="M200 440H160V480H200V440Z" fill="black"/>
<path d="M240 440H200V480H240V440Z" fill="black"/>
<path d="M280 440H240V480H280V440Z" fill="black"/>
<path d="M480 440H440V480H480V440Z" fill="black"/>
<path d="M520 440H480V480H520V440Z" fill="black"/>
<path d="M560 440H520V480H560V440Z" fill="black"/>
<path d="M600 440H560V480H600V440Z" fill="black"/>
<path d="M720 440H680V480H720V440Z" fill="black"/>
<path d="M800 440H760V480H800V440Z" fill="black"/>
<path d="M880 440H840V480H880V440Z" fill="black"/>
<path d="M920 440H880V480H920V440Z" fill="black"/>
<path d="M960 440H920V480H960V440Z" fill="black"/>
<path d="M1000 440H960V480H1000V440Z" fill="black"/>
<path d="M120 480H80V520H120V480Z" fill="black"/>
<path d="M240 480H200V520H240V480Z" fill="black"/>
<path d="M360 480H320V520H360V480Z" fill="black"/>
<path d="M400 480H360V520H400V480Z" fill="black"/>
<path d="M440 480H400V520H440V480Z" fill="black"/>
<path d="M520 480H480V520H520V480Z" fill="black"/>
<path d="M600 480H560V520H600V480Z" fill="black"/>
<path d="M640 480H600V520H640V480Z" fill="black"/>
<path d="M680 480H640V520H680V480Z" fill="black"/>
<path d="M720 480H680V520H720V480Z" fill="black"/>
<path d="M760 480H720V520H760V480Z" fill="black"/>
<path d="M800 480H760V520H800V480Z" fill="black"/>
<path d="M880 480H840V520H880V480Z" fill="black"/>
<path d="M920 480H880V520H920V480Z" fill="black"/>
<path d="M960 480H920V520H960V480Z" fill="black"/>
<path d="M1000 480H960V520H1000V480Z" fill="black"/>
<path d="M120 520H80V560H120V520Z" fill="black"/>
<path d="M200 520H160V560H200V520Z" fill="black"/>
<path d="M280 520H240V560H280V520Z" fill="black"/>
<path d="M320 520H280V560H320V520Z" fill="black"/>
<path d="M480 520H440V560H480V520Z" fill="black"/>
<path d="M560 520H520V560H560V520Z" fill="black"/>
<path d="M640 520H600V560H640V520Z" fill="black"/>
<path d="M720 520H680V560H720V520Z" fill="black"/>
<path d="M760 520H720V560H760V520Z" fill="black"/>
<path d="M800 520H760V560H800V520Z" fill="black"/>
<path d="M840 520H800V560H840V520Z" fill="black"/>
<path d="M880 520H840V560H880V520Z" fill="black"/>
<path d="M960 520H920V560H960V520Z" fill="black"/>
<path d="M1000 520H960V560H1000V520Z" fill="black"/>
<path d="M120 560H80V600H120V560Z" fill="black"/>
<path d="M320 560H280V600H320V560Z" fill="black"/>
<path d="M360 560H320V600H360V560Z" fill="black"/>
<path d="M520 560H480V600H520V560Z" fill="black"/>
<path d="M600 560H560V600H600V560Z" fill="black"/>
<path d="M640 560H600V600H640V560Z" fill="black"/>
<path d="M760 560H720V600H760V560Z" fill="black"/>
<path d="M840 560H800V600H840V560Z" fill="black"/>
<path d="M960 560H920V600H960V560Z" fill="black"/>
<path d="M1000 560H960V600H1000V560Z" fill="black"/>
<path d="M1040 560H1000V600H1040V560Z" fill="black"/>
<path d="M1080 560H1040V600H1080V560Z" fill="black"/>
<path d="M120 600H80V640H120V600Z" fill="black"/>
<path d="M160 600H120V640H160V600Z" fill="black"/>
<path d="M240 600H200V640H240V600Z" fill="black"/>
<path d="M320 600H280V640H320V600Z" fill="black"/>
<path d="M400 600H360V640H400V600Z" fill="black"/>
<path d="M480 600H440V640H480V600Z" fill="black"/>
<path d="M520 600H480V640H520V600Z" fill="black"/>
<path d="M640 600H600V640H640V600Z" fill="black"/>
<path d="M680 600H640V640H680V600Z" fill="black"/>
<path d="M720 600H680V640H720V600Z" fill="black"/>
<path d="M800 600H760V640H800V600Z" fill="black"/>
<path d="M880 600H840V640H880V600Z" fill="black"/>
<path d="M920 600H880V640H920V600Z" fill="black"/>
<path d="M1000 600H960V640H1000V600Z" fill="black"/>
<path d="M240 640H200V680H240V640Z" fill="black"/>
<path d="M360 640H320V680H360V640Z" fill="black"/>
<path d="M440 640H400V680H440V640Z" fill="black"/>
<path d="M480 640H440V680H480V640Z" fill="black"/>
<path d="M720 640H680V680H720V640Z" fill="black"/>
<path d="M800 640H760V680H800V640Z" fill="black"/>
<path d="M840 640H800V680H840V640Z" fill="black"/>
<path d="M960 640H920V680H960V640Z" fill="black"/>
<path d="M200 680H160V720H200V680Z" fill="black"/>
<path d="M280 680H240V720H280V680Z" fill="black"/>
<path d="M320 680H280V720H320V680Z" fill="black"/>
<path d="M400 680H360V720H400V680Z" fill="black"/>
<path d="M440 680H400V720H440V680Z" fill="black"/>
<path d="M480 680H440V720H480V680Z" fill="black"/>
<path d="M600 680H560V720H600V680Z" fill="black"/>
<path d="M680 680H640V720H680V680Z" fill="black"/>
<path d="M720 680H680V720H720V680Z" fill="black"/>
<path d="M800 680H760V720H800V680Z" fill="black"/>
<path d="M960 680H920V720H960V680Z" fill="black"/>
<path d="M1000 680H960V720H1000V680Z" fill="black"/>
<path d="M1040 680H1000V720H1040V680Z" fill="black"/>
<path d="M120 720H80V760H120V720Z" fill="black"/>
<path d="M160 720H120V760H160V720Z" fill="black"/>
<path d="M240 720H200V760H240V720Z" fill="black"/>
<path d="M280 720H240V760H280V720Z" fill="black"/>
<path d="M360 720H320V760H360V720Z" fill="black"/>
<path d="M400 720H360V760H400V720Z" fill="black"/>
<path d="M560 720H520V760H560V720Z" fill="black"/>
<path d="M640 720H600V760H640V720Z" fill="black"/>
<path d="M680 720H640V760H680V720Z" fill="black"/>
<path d="M760 720H720V760H760V720Z" fill="black"/>
<path d="M800 720H760V760H800V720Z" fill="black"/>
<path d="M840 720H800V760H840V720Z" fill="black"/>
<path d="M880 720H840V760H880V720Z" fill="black"/>
<path d="M920 720H880V760H920V720Z" fill="black"/>
<path d="M1000 720H960V760H1000V720Z" fill="black"/>
<path d="M1040 720H1000V760H1040V720Z" fill="black"/>
<path d="M1080 720H1040V760H1080V720Z" fill="black"/>
<path d="M440 760H400V800H440V760Z" fill="black"/>
<path d="M600 760H560V800H600V760Z" fill="black"/>
<path d="M720 760H680V800H720V760Z" fill="black"/>
<path d="M760 760H720V800H760V760Z" fill="black"/>
<path d="M920 760H880V800H920V760Z" fill="black"/>
<path d="M1000 760H960V800H1000V760Z" fill="black"/>
<path d="M1040 760H1000V800H1040V760Z" fill="black"/>
<path d="M440 800H400V840H440V800Z" fill="black"/>
<path d="M480 800H440V840H480V800Z" fill="black"/>
<path d="M560 800H520V840H560V800Z" fill="black"/>
<path d="M600 800H560V840H600V800Z" fill="black"/>
<path d="M640 800H600V840H640V800Z" fill="black"/>
<path d="M680 800H640V840H680V800Z" fill="black"/>
<path d="M760 800H720V840H760V800Z" fill="black"/>
<path d="M840 800H800V840H840V800Z" fill="black"/>
<path d="M920 800H880V840H920V800Z" fill="black"/>
<path d="M520 840H480V880H520V840Z" fill="black"/>
<path d="M560 840H520V880H560V840Z" fill="black"/>
<path d="M640 840H600V880H640V840Z" fill="black"/>
<path d="M720 840H680V880H720V840Z" fill="black"/>
<path d="M760 840H720V880H760V840Z" fill="black"/>
<path d="M920 840H880V880H920V840Z" fill="black"/>
<path d="M960 840H920V880H960V840Z" fill="black"/>
<path d="M1000 840H960V880H1000V840Z" fill="black"/>
<path d="M440 880H400V920H440V880Z" fill="black"/>
<path d="M480 880H440V920H480V880Z" fill="black"/>
<path d="M520 880H480V920H520V880Z" fill="black"/>
<path d="M600 880H560V920H600V880Z" fill="black"/>
<path d="M640 880H600V920H640V880Z" fill="black"/>
<path d="M760 880H720V920H760V880Z" fill="black"/>
<path d="M800 880H760V920H800V880Z" fill="black"/>
<path d="M840 880H800V920H840V880Z" fill="black"/>
<path d="M880 880H840V920H880V880Z" fill="black"/>
<path d="M920 880H880V920H920V880Z" fill="black"/>
<path d="M960 880H920V920H960V880Z" fill="black"/>
<path d="M1000 880H960V920H1000V880Z" fill="black"/>
<path d="M1080 880H1040V920H1080V880Z" fill="black"/>
<path d="M480 920H440V960H480V920Z" fill="black"/>
<path d="M520 920H480V960H520V920Z" fill="black"/>
<path d="M640 920H600V960H640V920Z" fill="black"/>
<path d="M680 920H640V960H680V920Z" fill="black"/>
<path d="M760 920H720V960H760V920Z" fill="black"/>
<path d="M840 920H800V960H840V920Z" fill="black"/>
<path d="M960 920H920V960H960V920Z" fill="black"/>
<path d="M1040 920H1000V960H1040V920Z" fill="black"/>
<path d="M1080 920H1040V960H1080V920Z" fill="black"/>
<path d="M480 960H440V1000H480V960Z" fill="black"/>
<path d="M720 960H680V1000H720V960Z" fill="black"/>
<path d="M760 960H720V1000H760V960Z" fill="black"/>
<path d="M840 960H800V1000H840V960Z" fill="black"/>
<path d="M960 960H920V1000H960V960Z" fill="black"/>
<path d="M1000 960H960V1000H1000V960Z" fill="black"/>
<path d="M1040 960H1000V1000H1040V960Z" fill="black"/>
<path d="M480 1000H440V1040H480V1000Z" fill="black"/>
<path d="M520 1000H480V1040H520V1000Z" fill="black"/>
<path d="M600 1000H560V1040H600V1000Z" fill="black"/>
<path d="M680 1000H640V1040H680V1000Z" fill="black"/>
<path d="M800 1000H760V1040H800V1000Z" fill="black"/>
<path d="M920 1000H880V1040H920V1000Z" fill="black"/>
<path d="M960 1000H920V1040H960V1000Z" fill="black"/>
<path d="M1000 1000H960V1040H1000V1000Z" fill="black"/>
<path d="M1040 1000H1000V1040H1040V1000Z" fill="black"/>
<path d="M440 1040H400V1080H440V1040Z" fill="black"/>
<path d="M480 1040H440V1080H480V1040Z" fill="black"/>
<path d="M520 1040H480V1080H520V1040Z" fill="black"/>
<path d="M560 1040H520V1080H560V1040Z" fill="black"/>
<path d="M640 1040H600V1080H640V1040Z" fill="black"/>
<path d="M680 1040H640V1080H680V1040Z" fill="black"/>
<path d="M880 1040H840V1080H880V1040Z" fill="black"/>
<path d="M920 1040H880V1080H920V1040Z" fill="black"/>
<path d="M960 1040H920V1080H960V1040Z" fill="black"/>
<path d="M1000 1040H960V1080H1000V1040Z" fill="black"/>
<path d="M1040 1040H1000V1080H1040V1040Z" fill="black"/>
<path d="M1080 1040H1040V1080H1080V1040Z" fill="black"/>
<path d="M318 80H122H80V122V318V360H122H318H360V318V122V80H318ZM318 318H122V122H318V318Z" fill="black"/>
<path d="M1038 80H842H800V122V318V360H842H1038H1080V318V122V80H1038ZM1038 318H842V122H1038V318Z" fill="black"/>
<path d="M318 800H122H80V842V1038V1080H122H318H360V1038V842V800H318ZM318 1038H122V842H318V1038Z" fill="black"/>
<path d="M280 160H160V280H280V160Z" fill="black"/>
<path d="M1000 160H880V280H1000V160Z" fill="black"/>
<path d="M280 880H160V1000H280V880Z" fill="black"/>
</svg>
