<svg xmlns="http://www.w3.org/2000/svg" fill="none" viewBox="0 0 128 128"><g clip-path="url(#a)"><circle cx="64" cy="64" r="42" fill="#F59E0B"/><circle cx="64" cy="64" r="42" fill="#F59E0B"/><path fill="#fff" d="M75.754 44.182a3 3 0 0 0-4.734-3.44L47.026 61.74a3.004 3.004 0 0 0-.835 3.31A3.025 3.025 0 0 0 49.004 67h10.45l-7.208 16.818a3 3 0 0 0 4.733 3.44L80.974 66.26a3.003 3.003 0 0 0 .835-3.31 3.007 3.007 0 0 0-2.812-1.94h-10.45l7.207-16.828Z"/><path fill="#F59E0B" fill-rule="evenodd" d="M64 128c35.346 0 64-28.654 64-64 0-35.346-28.654-64-64-64C28.654 0 0 28.654 0 64c0 35.346 28.654 64 64 64Zm0-12.25c28.58 0 51.75-23.17 51.75-51.75S92.58 12.25 64 12.25 12.25 35.42 12.25 64 35.42 115.75 64 115.75Z" clip-rule="evenodd"/></g><defs><clipPath id="a"><path fill="#fff" d="M0 0h128v128H0z"/></clipPath></defs></svg>